<?xml version="1.0" encoding="UTF-8"?>
<svg xmlns="http://www.w3.org/2000/svg" viewBox="0 0 224.05 142.29">
  <defs>
    <style>
      .cls-1 {
        opacity: .2;
      }

      .cls-1, .cls-2 {
        fill: #fff;
      }

      .cls-3 {
        fill: #9b664b;
      }

      .cls-4 {
        fill: #660606;
      }

      .cls-5 {
        fill: #c68863;
      }

      .cls-6 {
        fill: #aeb1b5;
      }

      .cls-7 {
        fill: #16233c;
      }

      .cls-8 {
        stroke: #660606;
        stroke-width: 1.25px;
      }

      .cls-8, .cls-9, .cls-10, .cls-11, .cls-12, .cls-13, .cls-14 {
        fill: none;
        stroke-miterlimit: 10;
      }

      .cls-15 {
        fill: #842d2d;
      }

      .cls-9 {
        stroke-width: .5px;
      }

      .cls-9, .cls-11, .cls-13 {
        stroke: #9b664b;
        stroke-linecap: round;
      }

      .cls-16 {
        fill: #0b111e;
      }

      .cls-17 {
        fill: #221f20;
      }

      .cls-18 {
        fill: #060a11;
      }

      .cls-19 {
        fill: #d5dae4;
      }

      .cls-20 {
        fill: #ffc8d8;
      }

      .cls-10 {
        stroke-width: .98px;
      }

      .cls-10, .cls-12 {
        stroke: #221f20;
      }

      .cls-21 {
        fill: #411710;
      }

      .cls-22 {
        fill: #efeff0;
      }

      .cls-23 {
        fill: #070c16;
      }

      .cls-24 {
        fill: #dbb19c;
      }

      .cls-25 {
        fill: #662c2c;
      }

      .cls-11 {
        stroke-width: .44px;
      }

      .cls-26 {
        fill: #f9e8f0;
      }

      .cls-12 {
        stroke-width: 1px;
      }

      .cls-27 {
        fill: #d67280;
      }

      .cls-28 {
        fill: #0e1a2b;
      }

      .cls-29 {
        fill: #c35a9b;
      }

      .cls-30 {
        fill: #3d0404;
      }

      .cls-31 {
        fill: #fff0a8;
      }

      .cls-13 {
        stroke-width: .41px;
      }

      .cls-14 {
        stroke: #0b111e;
        stroke-width: .75px;
      }

      .cls-32 {
        fill: #b8dfff;
      }

      .cls-33 {
        opacity: .5;
      }
    </style>
  </defs>
  <g id="Layer_1" data-name="Layer 1">
    <polygon class="cls-31" points="184.91 67.57 170.51 0 218.54 34.43 147.1 53.12 204.04 .17 184.91 67.57"/>
    <path class="cls-32" d="M183.93,64.3l18.6,5.94c6.15,2.12,13.29.44,16.91-4.39,3.16-4.2-.67-11.9-12.65-12.95,0,0,8.08-15.64-5.75-18.32-4.03-.78-9.09,4.27-10.21,7.78l-6.91,21.94Z"/>
    <g>
      <ellipse class="cls-20" cx="197.08" cy="48.29" rx="6.36" ry="6.06"/>
      <polygon class="cls-20" points="198.57 38.41 205.01 40.7 224.05 24.74 212.02 7.87 198.57 38.41"/>
    </g>
    <polygon class="cls-15" points="156.34 55.58 149.3 53.08 145.94 52.03 138.85 53.29 137.95 52.03 132.35 54.35 129.44 57.11 127.05 58.22 125.48 59.2 125.48 81.16 127.32 86.3 127.57 86.99 129.51 92.96 129.96 103.42 132.65 112.83 129.96 121.34 151.02 120.65 165.21 116.13 174.02 108.35 197.03 117.91 201.41 107.75 198.97 97.15 200.91 87.29 201.06 76.83 200.91 71.49 186.96 57.69 156.34 55.58"/>
    <path class="cls-17" d="M192.92,40.92c-1.79,1.87-7.17-1.35-7.17-1.35-1.79,4.16,0,10.91,0,10.91-2.44-.03-3.99-3.64-3.99-3.64l-1.53,2.29-.55-4.03-27.66,1.47-2.84,2.02c.71-1.12-1.41-2.62-1.41-2.62-1.76-1.19-1.71-2.56-1.82-4.08-.74,1.77-3.61,2.71-3.61,2.71,1.36-3.41-1.05-6.37-1.05-6.37-7.12-6.17-4.03-13.34-3.54-17.94.5-4.59,7.11-8.21,7.11-8.21-3.11-.66-4.19-3.74-4.19-3.74,1.57,1.48,6.49.79,6.49.79,0,0,4.58-1.68,6.09-2.51,1.51-.82,6.01.3,6.01.3l-.52-.84c-2.29-3.19-.94-6.08-.94-6.08.29,1.94,6.27,5.53,6.27,5.53l5.68.9s9.2.45,11.25,5.8c.85-.93,1.98-2.92.38-6.14.22.11,3.88,2.07,3.38,5.36,0,0,.17,1.95-.83,3.28,1.68,1.2,3.64,2.85,4.19,4.37.99,2.7,1.9,4.49,1.89,6.87-.01,2.04.75,3.4,1.62,5.31.21.46,1.69,3.76,2.13,3.76-2.49.19-4.37-1.94-4.37-1.94-.8,5.85,3.53,7.82,3.53,7.82Z"/>
    <path class="cls-4" d="M165.21,64.63l-5.14,3.89-1.34.65c-2.09-3.6-2.05-8.29-2.46-12.47l.06-1.13,6.23,1.31s.96,7.24,2.64,7.74"/>
    <polyline class="cls-30" points="182.82 52.03 180.4 51.81 181.87 54.35 182.82 52.03"/>
    <path class="cls-5" d="M162.4,57.78l.74,4.71.6,2.58,16.43-5.86,2.64-2.54-.04-.1c-1.83-4.49-2.95-9.24-3.33-14.08l-.08-.98-16.97,16.27Z"/>
    <path class="cls-3" d="M168.41,58.81c3.63-2.85,8.05-5.56,8.81-12.77l-14.82,11.74.59,3.74h0c1.97-.53,3.82-1.45,5.42-2.71Z"/>
    <path class="cls-5" d="M177.96,31.94c1.13-2.96,7.49-3.96,7.06,2.93-.22,3.55-2.35,6.78-6.27,7.34-.45,3.28-2.41,6.18-4.32,8.95-.52.75-1.04,1.5-1.68,2.15-1.26,1.28-2.92,2.18-4.39,3.22s-2.96,1.72-4.71,1.91c-1.46.15-3.76-.02-4.94-1.04,0,0-6.62-3.9-9.23-6.34s-2.84-10.33-2.84-10.33l-2.1-3.7s-4.86-9.94,1.78-15.47h16.48l15.16,10.39Z"/>
    <path class="cls-13" d="M159.56,44.23s.44-.99,1.72-1.3"/>
    <path class="cls-27" d="M168.97,46.04c.15,1.51-1.19,2.75-2.07,3.81-1.13,1.38-2.4,3.5-4.39,3.67-.82.07-1.63-.28-2.34-.7-.79-.48-1.57-.95-2.38-1.4-.41-.23-1.13-.45-1.25-.94l.45-.28c.34-.23.71-.39,1.11-.49l9.8-2.52.91-.42.16-.73Z"/>
    <path class="cls-25" d="M168.97,46.04v.36s-.04.39-.04.39l-1.03.4-9.8,2.52c-.4.1-.77.26-1.11.49l-.45.28c-.07-.3-.11-.51-.05-.73.02-.09.07-.18.14-.29.34-.52.76-1.04,1.13-1.55.41-.55.93-1.03,1.54-1.33,1.25-.61,2.76-.55,4.21-.49h.15c.6.03,1.19.05,1.74.02.07,0,.35-.02.72-.04,1.04-.06,2.84-.15,2.85-.03Z"/>
    <path class="cls-2" d="M157.51,49.86s2,1.62,4.09,1.29,5.82-3.17,6.31-3.96-8.26.68-8.92,1.16-1.48,1.51-1.48,1.51Z"/>
    <path class="cls-9" d="M182.14,31.94l-1.42,3.71s3.49.27.37,3.55"/>
    <line class="cls-3" x1="163.75" y1="65.55" x2="164.72" y2="71.49"/>
    <path class="cls-4" d="M178.7,71.34c1.93-1.22,4.63-2.91,6.57-4.05,0,0,.25.57.25.57-1.96.69-3.94,1.33-5.92,1.97l-.31-.77c1.13-.58,2.25-1.18,3.39-1.74l3.42-1.68c3.41.05,6.88.56,10.29.91.16.15-10.12-.55-10.11-.51.11-.04-6.8,3.44-6.77,3.43,0,0-.03-.08-.03-.08l5.95-1.87.32-.1-.29.17s-6.81,3.94-6.74,3.74h0Z"/>
    <path class="cls-4" d="M175.77,81.74c1.64-1.91,3.93-4.55,5.6-6.38,0,0,.42.5.42.5-1.28.9-2.58,1.79-3.88,2.65l-.48-.65,4.25-3.62s4.3-3.55,4.34-3.57c0,0,.02-.01.02-.01l1.31-.79.12-.07h.13c3.98.49,7.95,1.05,11.91,1.66.15.16-11.95-1.26-11.95-1.22.13-.06-1.32.82-1.27.79,0,0-8.56,7.17-8.56,7.17,0,0-.05-.07-.05-.07l3.93-2.58.26-.17-.21.23s-5.88,6.35-5.86,6.13h0Z"/>
    <path class="cls-4" d="M194.48,71.51c-2.79,1.6-5.75,3.11-8.64,4.48-.57.58-2.19,1.84-3.13,2.62,0,0,.12-.18.12-.18-1.01,2.8-2.14,5.54-3.36,8.26,0,.03-.06.01-.05-.02.01-.02,2.96-8.4,2.98-8.42,0,0,3.21-2.69,3.22-2.69.02.05,8.93-4.25,8.85-4.06h0Z"/>
    <path class="cls-4" d="M185.04,73.87c2.52-1.11,5.33-1.79,8.07-1.73-2.61.6-5.55,1.34-8.07,1.73h0Z"/>
    <path class="cls-4" d="M173.68,85.49c.54,3.21,1.26,7.69,1.72,10.87,0,0-.65.04-.65.04-.07-2.71-.07-5.43-.09-8.14l.83-.05c.25,2.21.52,4.42.75,6.63-.76,4.32-1.45,8.65-2.27,12.96,0,0-.63-.08-.63-.08.22-1.75.41-3.51.65-5.25l.71-5.25c.16-.15-1.06,10.53-1.01,10.54-.21.15,2.12-12.99,2.05-12.92,0,0-.71-6.57-.71-6.57h.09s0,8.14,0,8.14h-.07s-1.52-11.05-1.36-10.91h0Z"/>
    <path class="cls-4" d="M178.74,88.96c-.59,3.03-1.7,6.05-3.39,8.61,1.06-2.81,2.2-5.99,3.39-8.61h0Z"/>
    <path class="cls-4" d="M196.36,98.69c-.43-2.31-1.22-6.97-1.57-9.29,0,0,.69-.02.69-.02-.06,1.56-.18,3.12-.28,4.67l-.3,4.67c.82,2.82,2.28,8.47,3.09,11.87-.52-.59-1.75-2.05-2.28-2.66,0,0,.46-.18.46-.18-.04,2.03-.16,4.07-.24,6.1,0,.03-.05.03-.05,0,0,0,0-6.1,0-6.1v-.09s.06.06.06.06l1.46,1.62s-.06.03-.06.03l-2.93-10.68s.69-9.33.68-9.35c0,0,.03-.36.03-.36l.05.36s1.34,9.48,1.18,9.34h0Z"/>
    <path class="cls-4" d="M197.01,100.79c.11-1.43.83-2.77,1.95-3.67-.45,1.18-1.29,2.49-1.91,3.69-.02.03-.05,0-.04-.02h0Z"/>
    <path class="cls-4" d="M145.97,52.04c-.17,1.41-.4,2.81-.78,4.17-.76,1.56-1.72,3.21-2.9,4.49-.02.02-.06,0-.04-.02.85-1.54,1.7-3.17,2.56-4.67,0,0,1.12-3.98,1.12-3.98,0-.03.05-.02.05.01h0Z"/>
    <path class="cls-4" d="M140.05,63.01c-.11,1.63-.47,3.98-.73,5.62-1.24,1.97-2.75,3.81-4.17,5.67,0,0,.14-.4.14-.4-.06,3.65-.15,7.29-.62,10.92,0,.05-.07.05-.07,0,.02-.04-.06-10.93-.02-10.96,0,.01,4.24-5.44,4.19-5.34,0,0,1.21-5.52,1.21-5.52,0-.04.08-.03.07.02h0Z"/>
    <path class="cls-4" d="M127.31,86.97c2.08-1.54,4.4-2.71,6.76-3.75.81.82,1.61,1.66,2.36,2.53.56,1.17,1.07,2.35,1.46,3.59.01.04-.05.07-.07.03,0,0-1.91-3.28-1.91-3.28.05.06-2.06-2.03-2.04-2.02,0,0,.08.01.08.01l-6.61,2.95s-.08-.05-.03-.07h0Z"/>
    <path class="cls-4" d="M169.72,82.28l2.55-4.28c.84-1.43,1.73-2.84,2.59-4.26l.52.3c-1.06,2.22-3.25,6.65-4.35,8.84,0,0,.03-.3.03-.3.2.76.71,2.54.91,3.27,0,0-.99-.7-.99-.7l-1.1-.78.59-.07c-1.02,1.19-2.05,2.37-3.09,3.54l.1-.38c.76,3.62,1.56,7.25,2.27,10.89-.47-.54-1.46-1.67-1.93-2.21,0,0,.55-.3.55-.3.84,3.12,1.97,7.56,2.75,10.74-.09.19-3.05-10.66-3.1-10.64,0,0-.04-.15-.04-.15l.1.11,1.1,1.21s-.06.03-.06.03c.01-.05-2.14-9.58-2.09-9.61.05-.05,3.07-3.53,3.12-3.58,0,0,.04.03.04.03l1.09.79s-.07.05-.07.05l-.57-2.12v-.02s0-.02,0-.02c.05.05,4.43-8.99,4.53-8.75-.04-.02-5.39,8.56-5.43,8.36h0Z"/>
    <path class="cls-4" d="M155.09,84l4.73-3.69c1.58-1.23,3.15-2.47,4.75-3.67l.31.39s-7.33,6.4-7.33,6.4l.11-.28c.86,6.42,2.1,14.83,2.86,21.19,0,0-.95-1.15-.95-1.15l-2.55-3.08.47.11c-.27.12-2.44,1.04-2.65,1.13,0,0-.12-.42-.12-.42l-3.28-10.97.58-.21,2.64,6.26-.5.11c-.02-2.08-.02-4.16.01-6.24l.35-.03,1.05,7.16s-.04.04-.05,0c0,0-1.2-7.13-1.2-7.13.15-.24.1,6.31.14,6.23,0,.17.03.23-.06.01,0,0-2.69-6.23-2.69-6.23,0,0,.07-.03.07-.03-.03-.02,3.5,11.12,3.31,10.91,0,0,2.24-.97,2.24-.97,0,0,.03-.01.03-.01.02.04,2.57,3.05,2.59,3.09-.2.32-2.57-19.74-2.64-19.68-.02-.06,7.38-6.33,7.4-6.38,0,0,.04.05.04.05-.04-.02-9.69,7.33-9.65,7.14h0Z"/>
    <path class="cls-4" d="M159.39,113.79c-4.61.32-9.22.57-13.84.69-1.08-4.65-2.14-9.54-3.09-14.23,0,0,.72-.12.72-.12l.44,4.98s.38,5.01.32,5.02c-.08.01-1.13-9.93-1.16-9.95,0,0,.08-.01.08-.01l3.07,13.89c-.23-.05,13.67-.38,13.48-.26h0Z"/>
    <path class="cls-4" d="M131.55,103.42c2.57,3.32,6.14,8.01,8.58,11.35,0,0-.5.3-.5.3-1.06-2.16-6.35-12.98-7.29-14.89,3.38,3.91,7.45,8.78,10.74,12.81,0,0-.64.34-.64.34l-3.9-14.68.44-.15s3.08,7.49,3.01,7.51c-.07.03-3.22-7.39-3.25-7.4.13-.19,4.05,14.64,4.1,14.61,0,0,.05.19.05.19l-.13-.15-8.67-10.3s.08-.05.08-.05l5.74,12.03s-.06.04-.06.04c.04-.03-8.52-11.58-8.32-11.54h0Z"/>
    <path class="cls-4" d="M127.34,63.76l2.41,3.99.03.05c-.24,3.24-.6,7.76-.93,10.95,0,0-.81-.18-.81-.18.68-2.03,1.34-4.07,2.06-6.08l2.12-6.06s.75.18.75.18l-.95,5.71c-.37,1.84-.64,4.01-1.09,5.69,0,0,1.62-11.45,1.62-11.45l.08.02-4.14,12.15-.13.37.04-.39,1.13-10.85c.03.08-2.24-4.08-2.23-4.07-.02-.03.03-.05.04-.02h0Z"/>
    <path class="cls-4" d="M134.66,65.06c.19,1.04.29,2.55.36,3.62,0,0-.73-.17-.73-.17.49-1.05.91-2.13,1.45-3.15l.88-1.63c-.06,1.21-.07,2.77-.13,3.96-.06.72-.08,1.43-.18,2.15l-.12-.17c.32.18.72.31,1,.54,0,.01-.02.02-.03.02l-1.03-.36s-.02,0-.02-.03c0,0-.02-4.3-.02-4.3,0,0,.09.02.09.02l-1.5,3.13-.08.16v-.18s.02-3.62.02-3.62c0-.03.05-.03.05,0h0Z"/>
    <path class="cls-4" d="M140.92,56.37c-1.44-1.07-2.49-2.61-2.99-4.34.98,1.22,2.23,3.01,2.99,4.34h0Z"/>
    <g class="cls-33">
      <path class="cls-4" d="M129.79,92.76c-.3-2.14-.51-4.79-.7-6.96.53.94,2.25,3.97,2.82,4.95,0,0-.8.24-.8.24-.07-.97-.12-1.93-.19-2.9l.77-.1c.41,2.28.7,4.59.92,6.9-.1.18-1.3-6.83-1.35-6.82,0,0,.08-.01.08-.01l.23,2.9.02.22-.11-.19-1.93-3.55.07-.02s.29,5.5.16,5.35h0Z"/>
    </g>
    <polyline class="cls-8" points="130.38 96.62 135.09 93.59 136.69 97.43 140.55 92.91 142.21 96.01 145.4 93.54 147.57 81.86 162.04 69.17 163.75 65.55"/>
    <circle class="cls-6" cx="180.15" cy="41.56" r=".63"/>
    <path class="cls-6" d="M181.09,43.17c0,.88-.42,1.6-.94,1.6s-.94-.72-.94-1.6c0-.4.19-.76.4-1.05.25-.34.82-.34,1.08,0,.21.28.4.65.4,1.05Z"/>
    <circle class="cls-29" cx="180.15" cy="41.56" r=".51"/>
    <circle class="cls-6" cx="183.9" cy="37.53" r=".63"/>
    <circle class="cls-22" cx="183.78" cy="37.36" r=".32"/>
    <ellipse class="cls-22" cx="180.19" cy="43.73" rx=".54" ry=".67"/>
    <circle class="cls-6" cx="184.53" cy="34.04" r=".63"/>
    <circle class="cls-22" cx="184.42" cy="33.87" r=".32"/>
    <polyline class="cls-5" points="45.15 36.51 36.66 37.74 36.66 56 40.91 55.68 48.01 53.85 45.15 36.51"/>
    <polygon class="cls-2" points="39.73 56 31.21 59.38 18.02 51.96 12.35 20.19 21.51 20.19 21.66 24.77 28.18 33.44 37.43 37.19 39.73 56"/>
    <polygon points="22.17 46.25 33.97 36.06 28.07 28.97 22.17 34.05 19.48 33.24 16.94 25.92 21.87 23.89 22.32 15.31 23.51 13.07 19.63 8.44 9.62 5.6 9.62 4.56 7.64 3.81 4.28 3.81 3.29 4.86 1.1 11.43 0 21.98 0 32.24 2.39 45.09 4.98 46.25 1.99 47.58 1.29 51.46 1.29 57.14 1.79 64.61 2.49 67.2 10.16 66.2 15.34 66.8 19.62 65.9 23.5 65.8 24.5 64.61 28.28 64.01 29.18 62.42 31.77 61.32 31.21 59.38 30.47 56.84 22.17 46.25"/>
    <path class="cls-26" d="M37.92,40.87c-1.14.14-2.16-.62-2.29-1.7s.69-2.06,1.82-2.2"/>
    <path class="cls-26" d="M38.37,44.64c-1.14.14-2.16-.62-2.29-1.7s.69-2.06,1.82-2.2"/>
    <path class="cls-26" d="M38.83,48.44c-1.14.14-2.16-.62-2.29-1.7s.69-2.06,1.82-2.2"/>
    <path class="cls-26" d="M39.28,52.21c-1.14.14-2.16-.62-2.29-1.7s.69-2.06,1.82-2.2"/>
    <path class="cls-26" d="M39.75,55.99c-1.14.14-2.16-.62-2.29-1.7s.69-2.06,1.82-2.2"/>
    <rect class="cls-19" x="17.34" y="34.98" width="9.26" height="10.19" rx="2.7" ry="2.7" transform="translate(39.25 -2.23) rotate(50.95)"/>
    <rect x="18.78" y="36.57" width="6.37" height="7" rx="1.85" ry="1.85" transform="translate(39.25 -2.23) rotate(50.95)"/>
    <polyline class="cls-5" points="54.21 88.96 54.32 98.88 72.73 96.44 72.98 94.51 73.31 89.77 54.21 88.96"/>
    <polygon class="cls-2" points="72.55 96.02 75.83 103.96 68.62 116.22 37.77 121.5 37.77 112.98 42.22 112.84 50.64 106.77 54.28 98.16 72.55 96.02"/>
    <polygon points="59.95 112.36 50.04 101.38 43.16 106.87 48.09 112.36 47.31 114.86 40.2 117.23 38.23 112.64 29.9 112.22 27.72 111.11 23.23 114.73 20.47 124.04 19.45 124.04 18.73 125.88 18.73 129.01 19.74 129.93 26.13 131.97 36.38 132.99 46.34 132.99 58.81 130.77 59.95 128.36 61.23 131.14 65 131.79 70.52 131.79 77.77 131.32 80.28 130.68 79.32 123.54 79.9 118.72 79.03 114.74 78.95 111.95 77.84 110.26 77.33 106.78 75.44 103.01 74.58 103.43 72.69 103.96 70.23 104.64 59.95 112.36"/>
    <polygon class="cls-28" points="49.34 59.85 45.36 76.84 58.31 84.02 76.93 85.94 74.84 92.71 77.84 110.26 84.5 120.39 93.05 125.89 98.94 84.02 98.14 51.18 49.34 59.85"/>
    <rect class="cls-19" x="23.78" y="36.66" width="1.28" height="2.22" rx=".55" ry=".55" transform="translate(38.37 -4.99) rotate(50.95)"/>
    <path class="cls-18" d="M71.25,66.77l-.09-6.57v-.43c.12.2.96,1.71,1.11,1.96,0,0-.25.05-.25.05l.41-3.09.11-.82c.11.42,1.34,4.55,1.49,5.08.02.01.52,5.58.53,5.6,0,0,0,.05,0,.05,0,0-.01.05-.01.05l-.49,1.67c-.03-.62,1.54,8.49,1.54,8.35,0,0-.61.05-.61.05l-.03-6.96.68-.02.82,10.5.12,1.58c-.4-.67-2.37-3.77-2.59-4.18,0,0-5.33-5.35-5.33-5.35-.02-.02-.06-.06-.07-.09-2.15-3.72-4.21-7.48-6.32-11.22,0,0,.75-.28.75-.28,0,0,1.39,6.8,1.39,6.8-.5-.77,10.2,12.29,10.1,12.12,0,0-.42.43-.42.43l-10.2-8.32.32-.37,7.32,6.81.62.58-.76-.36s-7.48-3.44-7.33-3.53c0,0,7.4,3.39,7.4,3.39,0,.22-7.4-6.72-7.43-6.67,0,0,.04-.05.04-.05-.01.03,10.42,8.29,10.18,8.33,0,0-10.25-12.24-10.25-12.25,0,0-1.42-6.8-1.42-6.8,0,0-.06-.29-.06-.29l.15.26s6.37,11.24,6.34,11.19c0,0,5.3,5.38,5.3,5.38,0,0,1.79,2.91,1.79,2.92-.19.33-.79-10.56-.85-10.48,0,0,.08,0,.08,0,0,0,0,6.96,0,6.96-.15.23-1.52-8.53-1.57-8.48,0-.01.5-1.71.5-1.67,0,0-.5-5.56-.5-5.56,0,.02-1.19-4.3-1.19-4.29,0,0,.06,0,.06,0l-.45,3.09v.08s-.05-.07-.05-.07c0,0-.88-1.59-.88-1.59h.05s0,6.56,0,6.56c0,0-.05,0-.05,0h0Z"/>
    <path class="cls-18" d="M77.18,81.1c.94-6.35,2.35-15.69,3.39-21.95,0,0,.58.08.58.08l-2.44,27.5s-.84-.25-.84-.25l2.62-4.88c-.16.56,5.12-23.08,5.07-22.95,0,0,.54.13.54.13-.92,3.11-1.81,6.24-2.77,9.34l-2.85,9.32c-.16.06,5.36-18.73,5.32-18.74,0,0,.07.02.07.02,0,0-4.97,23.1-4.97,23.1,0,0-2.59,4.9-2.59,4.9l-.12.22s.02-.25.02-.25l2.6-27.49h.07s-3.6,22.02-3.72,21.91h0Z"/>
    <path class="cls-18" d="M84.13,89.76c1.55-4.07,3.26-8.24,5.02-12.21,0,0,.78.3.78.3-.63,2.15-1.3,4.29-1.99,6.42l-.76-.32c.68-1.2,1.34-2.42,2.03-3.61l.73-1.27c-.02.9-.09,3.21-.12,4.13-.03.91-.03,1.82-.1,2.73,0,0-.87,3.43-.87,3.43h-.05s.7-3.49.69-3.47c0,0,0-5.38,0-5.38,0,0,.07.02.07.02l-1.99,3.64-.08-.03,1.99-6.42.08.03s-5.36,12.16-5.44,12.02h0Z"/>
    <path class="cls-18" d="M81.5,106.74c.95-2.03,1.94-4.04,3.01-6.01,0,0,.34.58.34.58-1.08.01-3.64.05-4.7.07,0,0,1.51-.84,1.51-.84,2.56-1.38,5.31-2.74,7.96-3.97-1.27,1.15-2.79,2.57-4.05,3.71,0,0-.25-.35-.25-.35l2.38-.98s.02.04.02.04l-2.29,1.16-.17.09.13-.14,2.21-2.23.04.06-5.77,3.03-.02-.09h2.99c.08,0,.08,0,.04.07-.03-.02-3.32,5.95-3.38,5.8h0Z"/>
    <path class="cls-26" d="M57.85,97.71c.13,1.06-.61,2.01-1.65,2.14s-2-.64-2.13-1.7"/>
    <path class="cls-26" d="M61.51,97.29c.13,1.06-.61,2.01-1.65,2.14s-2-.64-2.13-1.7"/>
    <path class="cls-26" d="M65.2,96.86c.13,1.06-.61,2.01-1.65,2.14s-2-.64-2.13-1.7"/>
    <path class="cls-26" d="M68.86,96.44c.13,1.06-.61,2.01-1.65,2.14s-2-.64-2.13-1.7"/>
    <path class="cls-26" d="M72.79,95.94c.13,1.06-.86,2.08-1.91,2.2s-2-.64-2.13-1.7"/>
  </g>
  <g id="Layer_5" data-name="Layer 5">
    <path class="cls-7" d="M56.84,12.59l17.13,8.7,4.18-1.73,5.18,1.73,6.57-1.13,8.76-.2,13.54-3.02,13.27,7.58,1.84,4.29-1.84,30.4v21.96l4.33,11.6.15,10.66,2.69,9.41-2.69,8.51-6.12,4.8-6.67,2.88h-6.81l-10.91-.38s-7.95-2.24-8.92-5.45-1.44-18.95-1.44-18.95l-1-13.08,2.79-2.2-1-12.97,1.99-5.78-2.39-9.52,4.82-4.33v-2.16l-12.19,2.16-10.76,1.86h-11.35l-12.15,2.46-3.78-33.92,6.17-14.18,3.59-1.16,3.01,1.16Z"/>
    <polyline class="cls-14" points="114.17 124.92 107 112.67 108.72 106.76 110.32 104.68 108.17 100.17 111.34 95.86 106.11 58.22 104.94 40.97"/>
    <path class="cls-16" d="M126.53,84.04c-1.54,2.82-3.61,6.76-5.2,9.5-1.61,2.23-12.11,16.77-13.45,18.63,0,0,1.45-3.51,1.45-3.51l6.63-16.06.47.29c-1.39,1.57-2.75,3.17-4.19,4.7,0,0-4.77,3.11-4.77,3.11l-.03-.04s4.7-3.26,4.67-3.24c0,0,4.08-4.73,4.08-4.73l.14-.16s-.08.2-.08.2l-6.46,16.13-.09-.05s11.37-15.42,11.36-15.41c.02.03,5.4-9.51,5.46-9.34h0Z"/>
    <path class="cls-16" d="M127.59,87c-1.47,4.39-3.31,9.07-5.03,13.34,0,0-.7-.51-.7-.51,1.2-1,2.81-2.3,4.02-3.31-.67,1.14-2.08,3.54-2.75,4.69-1.49,2.54-3.2,5.3-5.04,7.63,0,0-.04-.03-.04-.03l1.67-2.55c1.05-1.74,3.49-6.1,4.55-7.92,0,0,.07.06.07.06l-2.16,1.81-.15.13.08-.19s5.4-13.3,5.49-13.15h0Z"/>
    <path class="cls-16" d="M59.84,26.7c3.18-1.43,6.39-2.78,9.65-4.02,0,0,.35.74.35.74-1.62.96-3.23,1.94-4.88,2.85l-.38-.77c2.84-1.15,5.69-2.29,8.57-3.32,0,0,2.9-1.01,2.9-1.01,0,0,.02.05.02.05-.05-.07-11.4,4.93-11.35,4.64,0,0,4.89-2.84,4.89-2.84,0,0,.04.08.04.08-.02-.04-9.85,3.76-9.81,3.6h0Z"/>
    <path class="cls-16" d="M104.96,37.95l.15,3.02v.06s-.04.06-.04.06c-1.76,2.1-4.2,5.01-5.73,6.61-.86,2.11-1.71,4.25-2.59,6.35-.25-.68-.76-2.09-1.02-2.78.71-3.71,1.43-7.42,2.26-11.11,0,0,.85-3.65.85-3.65h.05s-2.67,14.73-2.67,14.73c-.03-.11.61,1.59.6,1.57,0,0-.09,0-.09,0,0-.01,2.19-5.28,2.2-5.29,0,.01,6.03-6.63,5.98-6.54,0,0,0-3.02,0-3.02h.05Z"/>
    <path class="cls-16" d="M103.94,34.04l2.77-7.56.07-.19.19-.06,7.76-2.36s.02.05.02.05c0-.01-7.72,2.86-7.58,2.76-.03-.01-3.16,7.51-3.23,7.36h0Z"/>
    <path class="cls-16" d="M90.85,51.2s-.02-1.41-.02-1.42c1.19-4.81,2.32-9.63,3.56-14.43,0,0,.44.23.44.23l-.96,1.1s.04-.07.04-.07l-6.98,16.35s-.08.19-.08.19l-.2.03-5.27.73h-.07c-.38-.07-3.22-.73-3.53-.79,0,0,.19-.45.19-.45l2.75-6.59.71.5s-4.21,3.77-4.07,3.64c0,0-4.51,4.76-4.51,4.76,0,0-.28.29-.28.29l-.28-.28c-.15-.11-1.17-1.21-1.28-1.3,0,0,.12-.24.12-.24l9.06-18.15s.5.21.5.21l-2.02,5.64s-.39-.24-.39-.24l4.05-4c-.05.05,4.68-5.82,4.66-5.81.17-.02-4.57,5.92-4.54,5.93,0,0-3.98,4.06-3.98,4.06-.13.13-.1.12-.05-.03,0,0,1.99-5.65,1.99-5.65l.06.03-8.95,18.2v-.05s1.09,1.09,1.09,1.09c0,0-.06,0-.06,0,0,0,4.48-4.78,4.48-4.78,0,0,4.08-3.69,4.08-3.69l.17-.15-.09.21-2.79,6.57-.03-.06s2.99.7,2.99.7c-.08.02,5.28-.71,5.26-.7-.12.14,7.07-16.3,7.05-16.29,0,0,.97-1.09.97-1.09,0,0,.09-.1.09-.1,0,0-.03.13-.03.13l-3.77,14.37s0,1.41,0,1.41c0,0-.05,0-.05,0h0Z"/>
    <polygon class="cls-16" points="122.15 123 122.83 118.2 129.59 112.02 132.65 112.83 130.39 119.98 122.15 123"/>
    <polyline class="cls-16" points="50.24 12.59 53.83 11.43 60.69 14.54 54.72 28.26 55.46 32.04 54.52 38.61 59.06 58.41 47.85 60.69 44.07 26.76 50.24 12.59 53.83 11.43"/>
    <path class="cls-16" d="M95.48,56.34c3.92-4.58,8.37-9.4,12.55-13.71,0,0,.13-.14.13-.14h.18s1.1.01,1.1.01l-.18.04c1.83-.84,6.61-3.15,8.05-3.66.97-1.18,1.92-2.6,2.91-3.64,0,0-2.68,3.8-2.68,3.8.01,0-8.07,3.92-8.07,3.92,0,0-.02,0-.02,0,0,0-1.1,0-1.1,0,.12-.13-12.87,13.55-12.86,13.37h0Z"/>
    <path class="cls-5" d="M171.66,113.85l-2.67,7.49-21.92-1.79-17.47.45-3.1.75-9.19,4.78-12.1-.75h-1.2l-9.71,8.22.6.82,1.64.67,3.59-.52,5.6-4.41,3.36.07-6.2,4.11-7.32,3.73.6,1.49,2.17,1.05,3.29-.97,1.34.9,2.09.52,3.29-.52,7.17-3.59-3.96,3.51-1.07,1.16.67,1.27h2.32l2.49-1.08,2.61-2.39,5.25-.8,7.3-4.2,4.41-3.02,10.76,2.89s16.68,5.23,19.02,5.78,15.34.3,15.34.3c0,0,4.63-.6,6.17-5.68l5.86-9.57-17.55-10.66h-3.46Z"/>
    <polyline class="cls-11" points="168.99 121.34 171.66 122.83 172.95 125.02"/>
    <polygon class="cls-4" points="171.66 113.85 173.34 107.72 173.34 107.72 197.03 117.91 192.67 124.51 171.66 113.85"/>
    <path class="cls-16" d="M122.5,114.93c.87-3.17,2.71-9.53,3.66-12.67,0,0,.68.24.68.24-1.02,2.71-2.08,5.39-3.12,8.09l-.81-.28c1.76-6.22,3.59-12.41,5.51-18.58,0,0,.57.12.57.12-.54,3.11-1.02,6.42-1.7,9.41,0,0,1.37-9.46,1.37-9.46.23-.11-5.36,18.64-5.3,18.64,0,0-.09-.03-.09-.03l3.19-8.06.07.03s-3.94,12.69-4.04,12.55h0Z"/>
    <path class="cls-16" d="M90.88,88.93c1.91-4.73,3.46-9.76,5.39-14.47,0,0,.83.35.83.35-2.12,4.66-4.33,9.36-6.21,14.12h0ZM90.86,88.98l2.67-7.28c.83-2.09,2.2-5,3.1-7.09,0,0,.09.04.09.04l-5.87,14.33h0Z"/>
    <path class="cls-16" d="M102.9,76.82c3.87-3.85,9.82-9.51,13.85-13.3,0,0,.42.52.42.52l-6.58,4.81-1.63,1.19,1.05-1.74,2.1-3.48.6.62c-1.19.7-2.4,1.36-3.6,2.03l-3.6,2.02s-.43-.63-.43-.63c-.01.03,11.93-9.55,11.7-9.33,1.63-2.28,4.05-5.46,5.73-7.75,0,0,.04.03.04.03l-5.54,7.88s-11.67,9.5-11.67,9.5c0,0-.05-.07-.05-.07l7.17-4.12.17-.1-.1.17-2.13,3.46s-.07-.06-.07-.06l6.63-4.74c.23.04-14.07,13.2-14.05,13.08h0Z"/>
    <path class="cls-16" d="M103.95,65.98c3.45-3.99,7.4-8.28,10.86-11.88,2.59-3.86,5.91-8.57,8.66-12.35,0,0,3.02-4.03,3.02-4.03,0,0,.04.03.04.03,0,0-11.32,16.63-11.32,16.63-.03-.04-11.23,11.77-11.26,11.6h0Z"/>
    <path class="cls-16" d="M92.09,63.01c-.23-.75-.88-2.68-1.1-3.4,0,0,.68.99.68.99.67.98,1.29,2.01,1.92,3.01l-.51-.06c3.61-3.84,7.15-7.73,10.75-11.58,1.21-1.23,2.48-2.67,3.74-3.72-4.05,4.58-9.91,11.33-14.23,15.55,0,0-.03.03-.03.03l-.02-.04-1.79-3.09s.05-.02.05-.02l.59,2.32h-.05Z"/>
    <path class="cls-7" d="M81.88,28.31c-1.26,2.36-2.47,4.75-3.77,7.08-1.41,1.61-2.8,3.25-4.24,4.84-3.95,4.47-8.85,9.84-12.91,14.21,0,0-.22-.62-.22-.62,3.3.56,6.65,1.09,9.94,1.73,0,0-1.6.04-1.6.04l-4.09.1v-.05s4.08-.25,4.08-.25c0,0,0,.06,0,.06l-8.38-1.23s-.07-.01-.07-.01l.05-.05s17.21-18.98,17.19-18.96c.03.03,3.97-7.06,4.03-6.9h0Z"/>
    <polyline class="cls-14" points="104.94 40.97 97.42 43.53 95.96 41.99 61.23 44.28 52.38 43.73"/>
  </g>
  <g id="Layer_2" data-name="Layer 2">
    <g>
      <path class="cls-2" d="M153.97,35.59s-3.15-3.24-5.54,2.14l.8,2.1c.89.79,1.98,1.44,3.13.69h0c.61-.07,2.03-1.8,2.32-2.4l-.7-2.53Z"/>
      <g>
        <ellipse class="cls-21" cx="152.61" cy="37.51" rx="2.24" ry="2.7"/>
        <ellipse class="cls-2" cx="151.65" cy="35.96" rx=".8" ry=".73"/>
      </g>
      <g>
        <path class="cls-17" d="M153.66,39.92c-.89.97-2.08,1.76-3.49,1.31-1.12-.68-1.72-1.68-2.14-2.88,0,0,.06-.05.06-.05.73.79,1.48,1.69,2.4,2.24,1.01.4,2.87-.75,3.16-.62h0Z"/>
        <path class="cls-17" d="M154.38,36.2c-2.68-2.3-4.7-.24-6.28,2.14-.02.05-.1.04-.08-.02.39-1.43,1.07-3.02,2.52-3.65,1.47-.65,3.21.08,3.92,1.49.02.05-.04.08-.08.04h0Z"/>
        <polygon class="cls-17" points="148.93 37.18 148.8 38.34 149.3 39.59 148.23 38.6 148.05 38.16 148.75 37.37 148.93 37.18"/>
        <polygon class="cls-17" points="149 36.7 148.73 37.51 146.92 36.51 149 36.7"/>
        <polygon class="cls-17" points="146.53 38.02 148.53 37.51 148.36 38.39 146.53 38.02"/>
        <polygon class="cls-17" points="149.86 40.52 150.31 41.13 149.23 41.64 149.86 40.52"/>
        <polygon class="cls-17" points="150.75 42.31 150.67 40.98 151.47 41.07 150.75 42.31"/>
      </g>
    </g>
    <g>
      <path class="cls-2" d="M160.01,34.56s4.3-5.89,9.74-.6l-.94,1.35c-.87,1.21-2.23,1.62-3.71,1.86l-1.07.41c-1.46-.3-1.54-.43-2.17-1.01l-1.86-2Z"/>
      <g>
        <ellipse class="cls-21" cx="166.57" cy="34.22" rx="2.24" ry="2.7"/>
        <ellipse class="cls-2" cx="165.52" cy="32.61" rx=".8" ry=".73"/>
      </g>
      <g>
        <path class="cls-17" d="M159.97,34.63c1.51-4.89,7.35-4.75,9.82-.72.04.04-.01.11-.07.08-2.1-1.65-5.26-3.07-7.68-1.27-.76.53-1.44,1.21-1.98,1.97-.03.05-.11,0-.08-.06h0Z"/>
        <path class="cls-17" d="M164.04,37.53c1.12-.5,2.56-.64,3.55-1.08.29-.27.54-.68.82-1.02.36-.5.79-1,1.3-1.49l.08.03c-.52,1.14-.83,2.6-1.92,3.33-1.24.45-2.55.36-3.84.32,0,0,0-.09,0-.09h0Z"/>
        <polygon class="cls-17" points="168.59 33.13 168.81 34.09 168.51 35.42 169.65 34.22 169.75 33.75 168.59 33.13 168.59 33.13"/>
        <polygon class="cls-17" points="168.08 32.59 168.88 33.22 170.51 31.52 168.08 32.59"/>
        <polygon class="cls-17" points="171.79 32.85 169.03 33.23 169.75 33.95 171.79 32.85"/>
        <polygon class="cls-17" points="168.11 36.33 167.9 37.07 169.53 37.07 168.11 36.33"/>
        <polygon class="cls-17" points="168.35 38.1 167.68 36.86 166.76 37.28 168.35 38.1"/>
      </g>
    </g>
    <path class="cls-1" d="M153.8,41.31c-1.03,1.87-3.87,1.87-3.87,1.87-5.06.42-6.46-5.55-6.46-5.55,0,0,1.97-5.77,9.3-4.43,0,0,1.07.71,2.32,2.72.62,1-.17,3.35-1.29,5.39Z"/>
    <path class="cls-10" d="M153.49,41.71c-.99,1.87-3.73,1.87-3.73,1.87-3.23.28-4.91-2.24-5.68-3.98-.45-1.02-.36-2.22.28-3.14,1.12-1.6,3.54-3.74,8.14-2.86,0,0,.99.73,2.23,2.72.69,1.11-.16,3.35-1.25,5.39Z"/>
    <line class="cls-11" x1="154.52" y1="43.2" x2="157.75" y2="44.52"/>
    <path class="cls-1" d="M156.71,33.48s2.19,7.52,9.36,6.43,6.52-8.02,6.52-8.02c0,0-3.31-4.57-9.46-3.22s-6.42,4.81-6.42,4.81Z"/>
    <path class="cls-12" d="M156.72,33.4s1.86,8.13,9.03,7.03c4.69-.72,6.27-4.56,6.8-7.13.3-1.46-.44-2.95-1.82-3.53-1.73-.73-4.46-1.39-7.92-.63-6.15,1.35-6.09,4.26-6.09,4.26Z"/>
    <polyline class="cls-9" points="153.38 33.95 155.6 36.51 154.5 43.05"/>
  </g>
  <g id="Layer_3" data-name="Layer 3">
    <path class="cls-17" d="M178.17,32.68l-.68,10.1-.66-4.96c-.1-1.69-1.77-3.72-3.02-4.84l-2.15-1.92c.79,1.75,2.73,3.94,2.73,3.94-2.44-.31-13.9-10.3-13.9-10.3,0,1.72,3.64,7.1,3.64,7.1-3.84-.99-7.3-6.66-7.3-6.66-.87,2.83.41,6.55.41,6.55-3.41-1.72-4.17-9.19-4.17-9.19,0,0-3.07,6.08-1.43,10.44,0,0-1.98-1.82-2.75-5.22,0,0-1.06,6.49-.47,7.83-.62-1.02-4.77-5.31-1.36-11.38,0,0-3.15,10.15-.03,13.19-2.75-.84-5.69-3.32-5.74-6,0,0-2.23-13.98,10.24-15.54,0,0,23.89-8.69,26.63,16.85Z"/>
    <path class="cls-17" d="M151.62,33.22l5.5-1.7-.4,2.62s-1.5-.45-3.13.71l-1.97-1.64Z"/>
  </g>
  <g id="Layer_4" data-name="Layer 4">
    <path class="cls-4" d="M163.35,65.06l.98,5.94-.09,1.73c2.85-1.08,5.77-2.47,8.38-4.05l15.62-10.94-5.41-5.7s-9.22,9.93-19.47,13.03Z"/>
    <polygon class="cls-23" points="43.22 76.53 44.56 86.98 51.96 89.97 59.35 90.49 66.6 91.76 72.8 91.46 77.2 91.76 76.61 82.94 64.28 81.38 50.32 77.87 45.36 76.84 43.22 76.53"/>
    <polyline class="cls-11" points="101.66 138.92 105.51 136.68 108.61 134.26 114.17 131.49"/>
    <polyline class="cls-11" points="115.51 136.36 117.93 134.61 120.82 133.83"/>
    <polygon class="cls-24" points="110.51 140.95 112.87 141.38 113.54 140.3 113.32 139.21 112.13 139.05 110.51 140.95"/>
    <polygon class="cls-24" points="101.92 139.05 104.31 139.44 106.22 138.39 105.96 137.34 104.97 137.26 101.92 139.05"/>
    <polygon class="cls-24" points="95.56 137.48 97.83 138.35 99.62 137.26 99.62 136.36 98.68 135.89 95.56 137.48"/>
    <polygon class="cls-24" points="94.29 133 96.63 133.37 97.94 132.55 98.16 131.49 96.41 131.21 94.29 133"/>
  </g>
</svg>